# xmcd
#
# Track frame offsets:
# 150
# 24333
# 47442
# 71823
# 91494
#
# Disc length: 1478 seconds
#
#
# Revision: 0
# Processed by: cddbd v1.5.1PL0 Copyright (c) Steve Scherf et al.
# Submitted via: CDLP Version 5
#
DISCID=3805c405
DTITLE=アーティスト情報なし - アルバム情報なし (2005/07/05 20:01:25)
DYEAR=1900
DGENRE=Newage
TTITLE0=トラック 1
TTITLE1=トラック 2
TTITLE2=トラック 3
TTITLE3=トラック 4
TTITLE4=トラック 5
EXTD=
EXTT0=
EXTT1=
EXTT2=
EXTT3=
EXTT4=
PLAYORDER=
